<svg version="1.1" id="图层_1" xmlns="http://www.w3.org/2000/svg" x="0" y="0" viewBox="0 0 378 112" style="enable-background:new 0 0 378 112" xml:space="preserve"><style>.st0{fill:#1890ff}</style><path class="st0" d="M91.44 89.39v2.43H59.78v-2.43l8.61-.01L54.34 55.2l-28.54-.03-8.35 20.39c-.4 1.21-.69 2.35-.84 3.42-.16 1.08-.24 2.05-.24 2.91 0 3.36.96 5.4 2.87 6.14 1.91.74 3.85 1.18 5.81 1.35v2.43H.41v-2.44c2.98-.08 5.57-1.09 7.79-3.03 2.21-1.93 4.29-5.68 6.25-11.25L46.24 2.32h1.91L84.3 89.39h7.14zM39.86 23.62 26.58 52.75h27.07L39.86 23.62zM104.4 86.39c5.17-2.19 10.45-4.27 15.83-6.27V4.74h8.43V2.32H95.84v2.43h8.55v81.64zM377.23 71.8c-30.58-8.96-66-13.7-102.42-13.7-18.64 0-37.71 1.22-56.71 3.61-28.7 3.62-56.51 9.84-82.66 18.45-25.27 8.33-48.47 18.72-68.94 30.89a.51.51 0 0 0-.19.67c.09.17.27.27.45.27.07 0 .15-.02.22-.05 24.67-11.69 51.96-21.44 80.88-29-.59 2.5-1.7 4.23-3.36 5.17-1.78.43-3.58.85-5.36 1.28v2.43h22.34v-2.43c-1.87-.43-3.75-.89-5.62-1.41-2.16-1.11-3.53-3.12-4.13-6.03a551.04 551.04 0 0 1 28.06-6.32l4.79 9.42 6.28-11.49c9.31-1.65 18.72-3.08 28.22-4.28 1.02-.13 2.03-.25 3.05-.38v20.49h-8.56v2.43h32.94v-2.43h-8.56V67.2c5.32-.5 10.64-.91 15.94-1.26v27.79h2.43v-1.68c.14-2.06 1.48-5.08 9.63-3.41.33.07.65.14.96.21.04.01.07.01.1.01 1.29.32 2.28.52 3.04.64.42.09.84.17 1.27.26 5.49 1.12 10.79 1.67 15.89 1.67 6.39 0 12.86-2.46 19.41-7.35 6.44-4.81 9.71-11 9.83-18.57 21.03 1.12 41.31 3.55 60.54 7.27.27.04.52-.12.59-.38a.507.507 0 0 0-.35-.6zm-71.89 4.66c0 3.67-2.16 6.69-6.49 9.03-4.33 2.35-9 3.53-14.01 3.53-4.22 0-9.31-1.18-15.27-3.52-.61-.27-1.38-.6-2.31-.96-.01 0-.02-.01-.03-.01-.82-.36-1.58-.73-2.31-1.1-6.76-3.83-8.31-10.89-8.6-15.03v-2.6c11.02-.67 21.98-1 32.8-1 4.52 0 9.01.06 13.47.18 1.83 2.99 2.75 6.82 2.75 11.48zM198.51 59.49l23.61-43.26v39.91c5.27-.61 10.56-1.13 15.83-1.56V17.01c0-4.34.64-7.48 1.91-9.4 1.28-1.91 3.88-2.87 7.79-2.87h1.15V2.32h-23.75l-31.83 58.09c1.77-.31 3.53-.62 5.29-.92zM144.23 8.38c2.72 2.43 4.09 4.71 4.09 6.84v55.67c1.02-.3 2.04-.59 3.06-.87V19.81l22.64 44.48c4.94-1.11 9.91-2.14 14.93-3.09L157.1 2.32l-23.59-.01v2.43h1.28c3.57 0 6.71 1.21 9.44 3.64z"/><g><path class="st0" d="M262.19 44.95c5.13 3.88 10.79 6.59 16.98 8.11 11.97.13 23.83.76 35.43 1.87-1.16-2.69-2.87-4.94-5.14-6.73-4.66-3.66-10.82-6.22-18.49-7.67-7.67-1.45-14.32-3.98-19.95-7.61-5.63-3.61-8.45-9.26-8.45-16.94 0-3.24 1.63-5.86 4.89-7.86 3.25-2 7.29-3 12.12-3 3.94 0 8.04.72 12.29 2.17 4.64 1.83 13.64 7.18 13.47 21.32h2.42V.01h-2.42v1.94c-.14 1.26-.64 2.74-2.14 2.99-.5.09-1.17.08-1.93.02-2.42-.54-4.92-1.05-7.5-1.52-4.07-.75-7.76-1.12-11.06-1.12-9.06 0-16.13 2.22-21.21 6.66-5.08 4.43-7.62 10.71-7.62 18.82 0 7.26 2.77 12.98 8.31 17.15z"/></g></svg>